<?xml version="1.0" standalone="no"?>
<!DOCTYPE svg PUBLIC "-//W3C//DTD SVG 20010904//EN"
 "http://www.w3.org/TR/2001/REC-SVG-20010904/DTD/svg10.dtd">
<svg version="1.0" xmlns="http://www.w3.org/2000/svg"
 width="700.000000pt" height="700.000000pt" viewBox="0 0 700.000000 700.000000"
 preserveAspectRatio="xMidYMid meet">
<metadata>
Created by potrace 1.14, written by Peter Selinger 2001-2017
</metadata>
<g transform="translate(0.000000,700.000000) scale(0.100000,-0.100000)"
fill="#000000" stroke="none">
<path d="M525 6985 c-96 -21 -168 -52 -241 -104 -120 -84 -205 -197 -252 -335
l-27 -81 0 -2965 0 -2965 28 -82 c68 -202 232 -361 437 -425 l75 -23 2960 0
2960 0 82 28 c197 67 353 223 421 421 l27 81 0 2965 0 2965 -27 81 c-68 198
-224 354 -421 421 l-82 28 -2940 2 c-2412 1 -2951 -1 -3000 -12z m3453 -893
c467 -73 816 -235 1083 -501 173 -174 270 -330 343 -552 32 -99 69 -291 79
-406 l4 -53 -608 0 -609 0 -5 28 c-3 15 -13 54 -21 87 -48 188 -195 348 -388
420 -132 50 -196 59 -406 59 -177 -1 -204 -3 -290 -26 -130 -35 -222 -82 -295
-150 -71 -66 -108 -129 -125 -213 -45 -218 96 -394 396 -494 49 -17 308 -84
574 -150 521 -129 787 -205 970 -278 401 -158 687 -401 845 -718 92 -183 127
-363 127 -635 -1 -400 -104 -690 -351 -984 -283 -337 -811 -577 -1395 -635
-139 -14 -516 -14 -666 -1 -431 39 -854 163 -1125 330 -268 164 -470 380 -598
635 -102 205 -150 394 -170 673 l-4 52 627 0 628 0 6 -48 c33 -229 157 -430
329 -531 76 -44 228 -96 347 -117 144 -27 463 -25 590 3 114 25 240 72 303
114 64 42 150 138 181 201 47 97 51 274 8 372 -54 121 -229 241 -467 319 -44
15 -228 63 -410 107 -508 124 -846 218 -1009 280 -239 92 -452 225 -607 379
-254 253 -369 539 -369 919 0 433 135 764 424 1043 252 243 630 407 1082 468
216 30 202 29 534 26 249 -2 329 -6 438 -23z"/>
</g>
</svg>
