<svg xmlns="http://www.w3.org/2000/svg" version="1.1" xmlns:xlink="http://www.w3.org/1999/xlink" xmlns:svgjs="http://svgjs.com/svgjs" width="1000" height="1000">
  <style>
    path {
      fill: #FF5500;
    }
    @media (prefers-color-scheme: dark) {
      path {
        fill: #2AFF00;
      }
    }
  </style><g id="light-icon"><svg xmlns="http://www.w3.org/2000/svg" version="1.1" xmlns:xlink="http://www.w3.org/1999/xlink" xmlns:svgjs="http://svgjs.com/svgjs" width="1000" height="1000"><rect width="1000" height="1000" rx="250" ry="250" fill="#000000"></rect><g transform="matrix(0.8264462809917356,0,0,0.8264462809917356,97.09554217534122,49.97739478885694)"><svg xmlns="http://www.w3.org/2000/svg" version="1.1" xmlns:xlink="http://www.w3.org/1999/xlink" xmlns:svgjs="http://svgjs.com/svgjs" width="975" height="1089"><svg width="975" height="1089" viewBox="0 0 975 1089" fill="none" xmlns="http://www.w3.org/2000/svg">
<g clip-path="url(#clip0_520_21)">
<path d="M959.08 714.65V649.77H942.03V617.71H925.97V601.81C923.33 601.81 920.69 601.84 918.05 601.81C915.34 601.77 912.61 602.01 909.92 601.64V568.78H894.03V552.719H878.5C877.97 552.189 877.62 551.84 877.09 551.31V535.78H861.03V519.719H828.97V487.82C812.68 487.82 796.39 487.83 780.09 487.82V470.82H764.09C764.09 468.19 764.12 465.56 764.09 462.92C764.05 460.17 764.29 457.39 763.92 454.65H747.09C747.09 449.39 747.35 444.06 747.02 438.82H731.09V454.75C725.79 455.08 720.4 454.82 715.09 454.82V438.82H698.94V422.82C694.12 422.82 689.64 422.88 685.15 422.78C684.13 422.76 683.11 422.19 682.09 421.88C682.09 418.82 682.11 416.18 682.09 413.54C682.07 410.96 682.19 408.36 682.02 405.82H666.1V422.75C660.8 423.08 655.41 422.82 650.1 422.82V405.82H634.1V389.82H618.17V405.61H601.1C601.1 400.35 601.1 395.09 601.02 389.82H552.17C551.84 384.57 552.1 379.24 552.1 373.98H504.24V357.95H455.21V340.92H422.31V324.94H520.04V340.78H584.91V356.74C590.22 357.1 595.62 356.83 600.93 356.83C600.93 367.94 600.93 378.88 601.01 389.83H617.03V374.04H634.1V389.83H650.1V373.9C655.4 373.57 660.79 373.83 666.1 373.83V389.83H682.1C682.1 384.52 681.84 379.13 682.17 373.83H699.1V357.98C696.54 357.64 693.92 357.89 691.32 357.84C688.68 357.79 686.04 357.83 683.6 357.83C683.05 357.28 682.7 356.93 682.22 356.45V342.2C682.55 341.87 682.91 341.51 683.43 340.99H698.96V356.68H715.01V340.95H730.91V357.81H715.11V373.83H731.11V389.83H747.11C747.11 384.52 746.85 379.13 747.18 373.83H764.11V357.83H748.61C748.09 357.31 747.74 356.96 747.25 356.47V342.2C747.65 341.8 748.12 341.33 748.46 340.99H764.27V356.67H780.12C780.12 351.41 779.86 346.08 780.19 340.84H796.12C796.12 335.51 796.12 330.17 796.05 324.77C790.86 324.7 785.59 324.7 780.23 324.7V309.06H795.98C795.98 314.32 795.98 319.58 796.05 324.78C801.4 324.85 806.68 324.85 812.12 324.85C812.12 319.54 811.86 314.15 812.19 308.85H829.12V293C826.56 292.66 823.94 292.91 821.34 292.86C818.7 292.81 816.06 292.85 813.62 292.85C813.07 292.3 812.72 291.95 812.24 291.47V277.22C812.57 276.89 812.93 276.53 813.45 276.01H828.98V291.7H845.03V275.97H860.93V292.83H845.13V308.85H861.13V324.85H877.13C877.13 319.54 876.87 314.15 877.2 308.85H894.13V292.84H878.04C876.16 287.69 877.67 282.4 877.05 277.43C877.67 276.81 878.14 276.34 878.47 276.01H894.13C894.13 278.81 894.09 281.45 894.14 284.09C894.19 286.68 893.93 289.3 894.26 291.67H909.98C910.58 275.65 910.36 248.05 909.61 243.85C904.45 243.85 899.29 243.85 894.06 243.92C893.99 249.11 893.99 254.38 893.99 259.74H877.35V243.99C882.94 243.99 888.54 243.99 894.07 243.92C894.14 233.23 894.14 222.61 894.14 212.35L892.55 210.76H877.02V178.7H861.14C861.14 175.88 861.16 173.24 861.14 170.6C861.12 168.01 861.24 165.4 861.06 162.66H845.09V145.76H829.03V129.7H811.97V113.82H796.09V97.7595H780.03V80.6995H747.14C747.14 77.8895 747.16 75.2395 747.14 72.5995C747.12 69.9995 747.24 67.3995 747.06 64.6495H715.09V48.9295H683.74C683.09 48.2795 682.62 47.8095 681.97 47.1595V32.8095H634.27V17.4595L632.51 15.6995H536.15C536.15 12.8895 536.19 10.2495 536.14 7.60953C536.09 5.00953 536.35 2.38953 536.02 0.0195312H374.11V15.7195H277.76C277.12 16.3595 276.64 16.8395 276 17.4795V32.8295C260.18 32.8295 244.54 32.8295 228.9 32.8295C228.76 32.8295 228.6 32.9095 228.48 32.9995C228.35 33.0895 228.26 33.2395 227.96 33.5695V48.8795H195.07V64.9395H163.01V80.9995H147.48C146.95 81.5295 146.6 81.8795 146.07 82.4095V97.9395H130.01V113.83C127.2 113.83 124.55 113.81 121.91 113.83C119.31 113.85 116.71 113.73 113.96 113.91V129.88H98.0702V145.94H82.5402L81.1302 147.35V162.88H65.0702V194.94H49.0102V243.83C46.2002 243.83 43.5502 243.81 40.9102 243.83C38.3102 243.85 35.7002 243.74 33.3302 243.88V389.86H49.2202V438.92H65.2802V470.98H81.1602C81.1602 481.8 81.1602 492.44 81.1602 503.08C81.1602 503.22 81.2502 503.38 81.3402 503.5C81.4302 503.63 81.5802 503.72 81.9202 504.02H98.2102V519.919H114.27V535.83C117.08 535.83 119.72 535.79 122.36 535.84C124.96 535.89 127.59 535.639 130.15 535.969V568.83H146.15V584.83H162.26V568.94H179.15V584.83H195.26V600.9H211.15V617.83H227.06V602.419L228.53 600.95H244.15V617.83H260.15V633.83H276.15V649.83H292.08V634.039H309.15V649.83H356.66C357.12 650.3 357.59 650.77 358.24 651.43V665.76H406.16C406.16 668.87 406.01 671.83 406.2 674.77C406.37 677.44 405.11 680.4 407.57 682.88H455.05V698.76H504.1V714.65H536.07C536.24 717.39 536.12 719.999 536.15 722.599C536.17 725.239 536.15 727.88 536.15 730.7H585.04V747.76H600.95V763.74H422.34V748.57C422.04 748.25 421.95 748.11 421.82 748.02C421.7 747.93 421.54 747.859 421.39 747.859C400.42 747.859 379.45 747.859 358.06 747.859C357.75 746.779 357.22 745.759 357.2 744.719C357.1 740.569 357.16 736.409 357.16 731.909H325.19V698.859C319.74 698.859 314.45 698.86 309.09 698.93C309.02 704.12 309.02 709.39 309.02 714.75H292.38V699C297.97 699 303.57 699 309.1 698.93C309.17 693.7 309.17 688.53 309.17 683C306.61 682.67 303.99 682.909 301.39 682.859C298.75 682.809 296.11 682.849 293.67 682.849C293.12 682.299 292.77 681.949 292.24 681.419V667.049H276.19V682.849H260.17V698.849C254.67 698.849 249.42 698.849 244.1 698.919C244.03 704.109 244.03 709.38 244.03 714.74H227.39V698.99C232.98 698.99 238.58 698.989 244.11 698.919C244.18 693.519 244.18 688.179 244.18 682.849H228.64C228.24 682.409 227.8 681.92 227.15 681.19V667.01H211.34V682.859H195.19C195.19 688.189 195.19 693.53 195.26 698.93C200.45 699 205.72 699 211.08 699V714.64H195.33C195.33 709.38 195.33 704.119 195.26 698.919C189.85 698.849 184.52 698.849 179.12 698.919C179.05 704.109 179.05 709.38 179.05 714.74H162.41V698.99C168 698.99 173.6 698.989 179.13 698.919C179.2 693.519 179.2 688.179 179.2 682.849H163.7C163.03 682.179 162.68 681.83 162.17 681.32V667.039H146.2C146.2 672.289 146.48 677.619 146.12 682.859H130.2C130.2 688.189 130.2 693.53 130.27 698.93C135.46 699 140.73 699 146.09 699V714.64H130.34C130.34 709.38 130.34 704.119 130.27 698.919C124.86 698.849 119.53 698.849 114.13 698.919C114.06 704.109 114.06 709.38 114.06 714.74H97.4202V698.99C103.01 698.99 108.61 698.989 114.14 698.919C114.21 693.519 114.21 688.179 114.21 682.849H98.7102C98.0402 682.179 97.6902 681.83 97.1802 681.32V667.039H81.2102C81.2102 672.289 81.4902 677.619 81.1302 682.859H65.2102C65.2102 688.189 65.2102 693.53 65.2802 698.93C70.4702 699 75.7402 699 81.1002 699V714.64H65.3502C65.3502 709.38 65.3502 704.119 65.2802 698.919C59.8702 698.849 54.5402 698.849 49.1402 698.919C49.0702 704.109 49.0702 709.38 49.0702 714.74H32.4302V698.99C38.0202 698.99 43.6202 698.989 49.1502 698.919C49.2202 693.519 49.2202 688.179 49.2202 682.849H33.7202C33.0102 682.139 32.6602 681.79 32.1302 681.26V667.08H15.9502V682.84C10.7502 682.84 5.47024 682.57 0.290236 682.9V698.9H15.8802V714.96H0.350236V731.02H16.0002V747.9H0.230236V763.96H15.9402V779.849C10.7402 779.849 5.47024 779.589 0.280236 779.909V795.9H16.1702V844.71H32.2302V829.02H49.0102V844.89H33.2202V877.95H49.2202V893.849C51.8602 893.849 54.4902 893.819 57.1302 893.849C59.8402 893.889 62.5702 893.66 65.2702 894.01V925.87H80.9802V941.219C81.6302 941.869 82.1002 942.34 82.7502 942.99H98.1002C98.1002 948.32 97.8402 953.72 98.1902 959.03H114.16V974.93H130.22V990.81H161.35C162.17 991.49 162.68 991.92 163.31 992.45V1007.93H179.22V1023.99H211.11C211.11 1029.32 210.86 1034.72 211.19 1040.03H260.16V1055.74H307.51C308.16 1056.39 308.63 1056.86 309.27 1057.5V1072.84C317.78 1072.84 326.3 1072.84 334.81 1072.84C349.81 1072.84 364.81 1072.84 379.81 1072.84C387.3 1072.84 394.79 1072.84 402.28 1072.84C405.99 1072.84 409.7 1072.84 413.41 1072.84C415.33 1072.84 417.25 1072.84 419.18 1072.84C420.11 1072.84 421.04 1072.8 421.96 1072.84C422.69 1072.87 422.84 1073.08 423.29 1073.6V1088.72H601.17V1072.73H699.22V1055.68H764.1C764.1 1050.35 763.84 1044.96 764.18 1039.64H796.15V1023.75H829.21V1007.69H845.27V990.81H861.15V974.75H877.21V958.69H894.1C894.1 956.05 894.07 953.41 894.1 950.77C894.14 948.06 893.9 945.33 894.27 942.64H910.14V925.75H926.2V893.69H942.26V862.159C942.79 861.629 943.14 861.28 943.67 860.75H959.2V795.7H974.86V714.65H959.09H959.08ZM861.03 210.82C861.35 216.4 861.11 222.05 861.11 227.64H845.15C845.06 222.15 845.15 216.48 845.1 210.82H861.03ZM812.27 178.9H828.94V194.76C823.4 195.01 817.82 194.81 812.27 194.81V178.89V178.9ZM812.19 243.99H829.05C829.38 249.18 829.11 254.45 829.11 259.64H812.19V243.99ZM780.27 275.94C782.66 275.63 785.28 275.87 787.87 275.83C790.51 275.78 793.14 275.82 795.94 275.82V292.73H780.27V275.94ZM764.02 324.65H747.23C746.91 322.27 747.16 319.65 747.11 317.06C747.06 314.42 747.1 311.78 747.1 308.98H764.02V324.65ZM747.26 291.47V277.16C747.8 276.62 748.15 276.27 748.51 275.91C753.61 275.91 758.71 275.91 763.96 275.91V292.68C761.57 293.01 758.96 292.75 756.38 292.8C753.75 292.85 751.11 292.81 748.62 292.81C748.13 292.32 747.78 291.97 747.27 291.46L747.26 291.47ZM747.28 178.87C752.81 178.59 758.4 178.81 763.94 178.81V194.73H747.28V178.87ZM747.11 243.99H763.92C764.26 249.15 764.17 254.48 763.95 259.81H747.18C746.84 254.57 747.11 249.24 747.11 243.99ZM715.2 308.99H731.05C731.39 314.17 731.11 319.45 731.11 324.64H715.2V308.99ZM699.11 324.65H682.19V308.98H698.98C699.3 311.36 699.05 313.98 699.1 316.57C699.15 319.21 699.11 321.85 699.11 324.65ZM682.11 243.99H699.02V259.64H682.17C681.83 254.46 682.11 249.18 682.11 243.99ZM650.11 340.98H666.03V357.64H650.17C649.89 352.11 650.11 346.52 650.11 340.98ZM585.01 568.69H520.2V633.69H455.3V569.57C455 569.23 454.91 569.09 454.78 568.99C454.66 568.9 454.5 568.81 454.36 568.81C433.05 568.81 411.74 568.81 390.27 568.81V503.93H455.02V439.02H520.08V503.64H585.01V568.7V568.69ZM32.2702 732.12C32.5302 731.89 33.0302 731.46 33.6702 730.9H48.9302V747.719H33.5002C33.1502 747.369 32.8002 747.01 32.2702 746.49V732.109V732.12ZM32.2702 763.88C37.8002 763.6 43.3902 763.82 48.9302 763.82V779.74H32.2702V763.88ZM48.9602 812.82C43.8402 812.82 38.7202 812.82 33.6002 812.82C33.1202 812.34 32.7702 811.989 32.2602 811.479V797.169C32.7802 796.649 33.1302 796.299 33.5202 795.909H47.6802C48.1102 796.339 48.4602 796.69 48.9602 797.19V812.83V812.82ZM80.9302 812.76C75.7402 813.08 70.4702 812.82 65.2702 812.82V795.9H80.9302V812.76ZM81.0202 747.65H65.1602C64.8902 742.11 65.1002 736.53 65.1002 730.99H81.0202V747.65ZM97.1002 732.32C97.7502 731.67 98.1002 731.32 98.5202 730.9H113.92V747.719H98.0402C97.7502 746.849 97.1602 745.85 97.1302 744.83C97.0202 740.69 97.0802 736.54 97.0802 732.32H97.1002ZM97.1102 772.06C97.0602 769.42 97.1002 766.779 97.1002 763.979H114.02V779.65H97.2302C96.9102 777.27 97.1602 774.65 97.1102 772.06ZM114.1 844.65H97.1802V828.99H114.04C114.36 834.18 114.1 839.45 114.1 844.65ZM145.94 812.729H130.26V795.82C135.49 795.82 140.71 795.82 145.94 795.82V812.729ZM146.02 747.64H130.17C129.87 742.12 130.11 736.52 130.11 730.99H146.02V747.64ZM178.94 779.76C173.4 780.02 167.82 779.81 162.27 779.81V763.89H178.94V779.75V779.76ZM179.02 747.63H163.42C162.99 747.2 162.63 746.839 162.2 746.409V732.24C162.59 731.85 162.94 731.5 163.45 730.99H179.02V747.64V747.63ZM211.02 747.65H195.16C194.9 742.11 195.11 736.529 195.11 730.979H211.03V747.65H211.02ZM195.1 682.82H179.1V665.89C173.86 665.55 168.53 665.82 163.27 665.82V649.95C165.94 649.59 168.68 649.86 171.37 649.82C173.94 649.78 176.52 649.82 179.1 649.82V633.82H195.1V649.82H211.1V665.82C205.79 665.82 200.4 665.56 195.1 665.89V682.82ZM130.1 682.82H114.1V665.89C108.86 665.55 103.53 665.82 98.2702 665.82V649.95C100.94 649.59 103.68 649.86 106.37 649.82C108.94 649.78 111.52 649.82 114.1 649.82V633.82H130.1V649.82H146.1V665.75C140.8 666.08 135.41 665.82 130.1 665.82V682.82ZM65.1002 682.82H49.1002V665.89C43.8602 665.55 38.5302 665.82 33.2702 665.82V649.95C35.9402 649.59 38.6802 649.86 41.3702 649.82C43.9402 649.78 46.5202 649.82 49.1002 649.82V633.82H65.1002V649.82H81.1002V665.75C75.8002 666.08 70.4102 665.82 65.1002 665.82V682.82ZM715.1 389.82H731.1V405.82H715.24C714.91 408.38 715.15 411 715.11 413.6C715.06 416.24 715.1 418.88 715.1 421.67H699.2V405.9H683.3V389.85H699.1V373.83H715.1V389.83V389.82ZM845.1 324.82H861.1V340.82H845.24C844.91 343.38 845.15 346 845.11 348.6C845.06 351.24 845.1 353.88 845.1 356.67H829.2V340.9H813.3V324.85H829.1V308.83H845.1V324.83V324.82ZM845.1 389.82H861.1V405.82H845.24C844.91 408.38 845.15 411 845.11 413.6C845.06 416.24 845.1 418.88 845.1 421.67H829.2V405.9H813.3V389.85H829.1V373.83H845.1V389.83V389.82ZM894.1 324.82V308.82H910.1V324.75C915.34 325.09 920.67 324.82 925.93 324.82V340.76C920.74 341.09 915.47 340.82 910.28 340.82V356.64C907.6 357.01 904.88 356.77 902.18 356.81C899.55 356.85 896.91 356.81 894.28 356.81V340.98C891.59 340.62 888.87 340.85 886.17 340.81C883.54 340.77 880.91 340.81 878.27 340.81V324.93C880.95 324.58 883.69 324.85 886.39 324.81C888.96 324.77 891.53 324.81 894.11 324.81L894.1 324.82ZM910.24 292.93H925.88V308.68H910.24V292.93ZM796.24 356.61V340.97H811.99V356.61H796.24ZM876.99 340.97V356.61H861.24V340.97H876.99ZM796.1 373.83H780.1V357.9C785.4 357.57 790.79 357.83 796.1 357.83V373.83ZM828.96 373.69H813.21V358.05H828.96V373.69ZM861.1 373.83H845.1V357.9C850.4 357.57 855.79 357.83 861.1 357.83V373.83ZM893.96 358.04V373.68H878.21V358.04H893.96ZM925.89 357.93V373.68H910.25V357.93H925.89ZM764.1 389.82V373.82H780.1V389.82H764.1ZM796.1 389.82V373.82H812.03C812.36 379.12 812.1 384.51 812.1 389.82H796.1ZM877.1 389.82H861.1V373.82H877.03C877.36 379.12 877.1 384.51 877.1 389.82ZM910.1 389.82H894.1V373.82H910.1V389.82ZM650.1 389.82H666.1V405.82H650.1V389.82ZM764.1 389.82V405.82H748.17C747.84 400.52 748.1 395.13 748.1 389.82H764.1ZM780.1 389.82H796.1V405.82H780.1V389.82ZM894.1 389.82V405.82H878.17C877.84 400.52 878.1 395.13 878.1 389.82H894.1ZM910.1 389.82H926.03C926.36 395.12 926.1 400.51 926.1 405.82H910.1V389.82ZM731.24 421.61V405.97H746.99V421.61H731.24ZM764.1 405.82H780.1V421.75C774.8 422.08 769.41 421.82 764.1 421.82V405.82ZM796.24 421.61V405.97H811.99V421.61H796.24ZM876.99 405.97V421.61H861.24V405.97H876.99ZM894.1 405.83H910.1V421.76C904.8 422.09 899.41 421.83 894.1 421.83V405.83ZM731.1 438.83H715.1V422.9C720.4 422.57 725.79 422.83 731.1 422.83V438.83ZM748.27 438.83V422.91H763.94V438.7C761.56 439.02 758.94 438.77 756.35 438.82C753.71 438.87 751.08 438.83 748.27 438.83ZM780.21 438.69V423.05H795.96V438.69H780.21ZM829.09 430.59C829.14 433.23 829.1 435.86 829.1 438.67H813.18V423H828.97C829.29 425.38 829.04 428 829.09 430.59ZM860.96 438.69H845.21V423.05H860.96V438.69ZM886.33 438.82C883.69 438.87 881.06 438.83 878.26 438.83V422.92H893.93V438.71C891.54 439.02 888.92 438.78 886.32 438.82H886.33ZM48.9602 568.68H33.2102V553.039H48.9602V568.68ZM16.2502 617.68V601.93H31.8902V617.68H16.2502ZM65.1102 617.82H49.1102V601.89C54.4102 601.56 59.8002 601.82 65.1102 601.82V617.82ZM81.2502 617.68V601.93H96.8902V617.68H81.2502ZM130.11 617.82H114.11V601.89C119.41 601.56 124.8 601.82 130.11 601.82V617.82ZM161.9 601.93V617.68H146.26V601.93H161.9ZM195.11 617.82H179.11V601.89C184.41 601.56 189.8 601.82 195.11 601.82V617.82ZM16.1102 633.82H0.170236C-0.159764 628.52 0.100236 623.13 0.100236 617.82H16.1002V633.82H16.1102ZM49.1102 617.82V633.82H33.1802C32.8502 628.52 33.1102 623.13 33.1102 617.82H49.1102ZM65.1102 633.82V617.82H81.1102V633.82H65.1102ZM114.11 617.82V633.82H98.1802C97.8502 628.52 98.1102 623.13 98.1102 617.82H114.11ZM130.11 633.82V617.82H146.11V633.82H130.11ZM179.11 617.82V633.82H163.18C162.85 628.52 163.11 623.13 163.11 617.82H179.11ZM195.11 633.82V617.82H211.11V633.82H195.11ZM16.1102 649.82V633.82H32.0402C32.3702 639.12 32.1102 644.51 32.1102 649.82H16.1102ZM15.9702 568.68H0.210236V553.039H15.9602V568.68H15.9702ZM81.1102 649.82V633.82H97.0402C97.3702 639.12 97.1102 644.51 97.1102 649.82H81.1102ZM926.1 462.57C926.15 465.21 926.11 467.85 926.11 470.65H910.19V454.99H925.98C926.31 457.36 926.05 459.98 926.1 462.57ZM146.11 649.82V633.82H162.04C162.37 639.12 162.11 644.51 162.11 649.82H146.11ZM894.1 462.58C894.15 465.22 894.11 467.85 894.11 470.65H878.19V454.98H893.98C894.3 457.37 894.05 459.98 894.1 462.57V462.58ZM845.32 470.71V454.96H860.96V470.71H845.32ZM0.310236 665.71V649.96H15.9502V665.71H0.310236ZM813.27 470.82V454.9H828.93V470.69C826.56 471.02 823.94 470.76 821.35 470.81C818.71 470.86 816.07 470.82 813.27 470.82ZM113.96 568.68H98.2102V553.039H113.96V568.68ZM32.1002 584.82H16.1002V568.82H32.0302C32.3602 574.12 32.1002 579.51 32.1002 584.82ZM81.1002 552.82V568.82H65.1002V552.89C70.4002 552.56 75.7902 552.82 81.1002 552.82ZM65.1002 568.82V584.82H49.1002V568.82H65.1002ZM81.1002 584.82V568.82H97.0302C97.3602 574.12 97.1002 579.51 97.1002 584.82H81.1002ZM796.1 470.82H780.1V454.82H796.1V470.82ZM130.1 568.82V584.82H114.1V568.82H130.1ZM861.1 438.82H877.03C877.36 444.12 877.1 449.51 877.1 454.82H861.1V438.82ZM812.1 454.82H796.1V438.82H812.03C812.36 444.12 812.1 449.51 812.1 454.82ZM0.310236 600.71V584.96H15.9502V600.71H0.310236ZM33.3102 600.71V584.96H48.9502V600.71H33.3102ZM65.1002 584.82H81.1002V600.75C75.8002 601.08 70.4102 600.82 65.1002 600.82V584.82ZM98.3102 600.71V584.96H113.95V600.71H98.3102ZM130.1 584.82H146.1V600.75C140.8 601.08 135.41 600.82 130.1 600.82V584.82ZM178.96 584.96V600.71H163.32V584.96H178.96ZM925.94 422.82V438.73H910.26V422.82C915.49 422.82 920.71 422.82 925.94 422.82ZM244.1 633.82H260.1V649.82H276.1V665.75C270.8 666.08 265.41 665.82 260.1 665.82V682.82H244.1V665.89C238.86 665.55 233.53 665.82 228.27 665.82V649.95C230.94 649.59 233.68 649.86 236.37 649.82C238.94 649.78 241.52 649.82 244.1 649.82V633.82ZM308.96 665.71H293.32V649.96H308.96V665.71ZM228.1 617.82H244.1V633.82H228.17C227.84 628.52 228.1 623.13 228.1 617.82ZM227.1 649.82H211.1V633.82H227.03C227.36 639.12 227.1 644.51 227.1 649.82Z" fill="#2AFF00"></path>
</g>
<defs>
<clipPath id="clip0_520_21">
<rect width="974.85" height="1088.71" fill="white"></rect>
</clipPath>
</defs>
</svg></svg></g></svg></g><g id="dark-icon"><svg xmlns="http://www.w3.org/2000/svg" version="1.1" xmlns:xlink="http://www.w3.org/1999/xlink" xmlns:svgjs="http://svgjs.com/svgjs" width="1000" height="1000"><rect width="1000" height="1000" rx="200" ry="200" fill="#000000"></rect><g transform="matrix(0.7346189164370982,0,0,0.7346189164370982,141.85508829986043,99.96543435968078)"><svg xmlns="http://www.w3.org/2000/svg" version="1.1" xmlns:xlink="http://www.w3.org/1999/xlink" xmlns:svgjs="http://svgjs.com/svgjs" width="975" height="1089"><svg width="975" height="1089" viewBox="0 0 975 1089" fill="none" xmlns="http://www.w3.org/2000/svg">
<g clip-path="url(#clip0_520_23)">
<path d="M959.08 714.65V649.77H942.03V617.71H925.97V601.81C923.33 601.81 920.69 601.84 918.05 601.81C915.34 601.77 912.61 602.01 909.92 601.64V568.78H894.03V552.719H878.5C877.97 552.189 877.62 551.84 877.09 551.31V535.78H861.03V519.719H828.97V487.82C812.68 487.82 796.39 487.83 780.09 487.82V470.82H764.09C764.09 468.19 764.12 465.56 764.09 462.92C764.05 460.17 764.29 457.39 763.92 454.65H747.09C747.09 449.39 747.35 444.06 747.02 438.82H731.09V454.75C725.79 455.08 720.4 454.82 715.09 454.82V438.82H698.94V422.82C694.12 422.82 689.64 422.88 685.15 422.78C684.13 422.76 683.11 422.19 682.09 421.88C682.09 418.82 682.11 416.18 682.09 413.54C682.07 410.96 682.19 408.36 682.02 405.82H666.1V422.75C660.8 423.08 655.41 422.82 650.1 422.82V405.82H634.1V389.82H618.17V405.61H601.1C601.1 400.35 601.1 395.09 601.02 389.82H552.17C551.84 384.57 552.1 379.24 552.1 373.98H504.24V357.95H455.21V340.92H422.31V324.94H520.04V340.78H584.91V356.74C590.22 357.1 595.62 356.83 600.93 356.83C600.93 367.94 600.93 378.88 601.01 389.83H617.03V374.04H634.1V389.83H650.1V373.9C655.4 373.57 660.79 373.83 666.1 373.83V389.83H682.1C682.1 384.52 681.84 379.13 682.17 373.83H699.1V357.98C696.54 357.64 693.92 357.89 691.32 357.84C688.68 357.79 686.04 357.83 683.6 357.83C683.05 357.28 682.7 356.93 682.22 356.45V342.2C682.55 341.87 682.91 341.51 683.43 340.99H698.96V356.68H715.01V340.95H730.91V357.81H715.11V373.83H731.11V389.83H747.11C747.11 384.52 746.85 379.13 747.18 373.83H764.11V357.83H748.61C748.09 357.31 747.74 356.96 747.25 356.47V342.2C747.65 341.8 748.12 341.33 748.46 340.99H764.27V356.67H780.12C780.12 351.41 779.86 346.08 780.19 340.84H796.12C796.12 335.51 796.12 330.17 796.05 324.77C790.86 324.7 785.59 324.7 780.23 324.7V309.06H795.98C795.98 314.32 795.98 319.58 796.05 324.78C801.4 324.85 806.68 324.85 812.12 324.85C812.12 319.54 811.86 314.15 812.19 308.85H829.12V293C826.56 292.66 823.94 292.91 821.34 292.86C818.7 292.81 816.06 292.85 813.62 292.85C813.07 292.3 812.72 291.95 812.24 291.47V277.22C812.57 276.89 812.93 276.53 813.45 276.01H828.98V291.7H845.03V275.97H860.93V292.83H845.13V308.85H861.13V324.85H877.13C877.13 319.54 876.87 314.15 877.2 308.85H894.13V292.84H878.04C876.16 287.69 877.67 282.4 877.05 277.43C877.67 276.81 878.14 276.34 878.47 276.01H894.13C894.13 278.81 894.09 281.45 894.14 284.09C894.19 286.68 893.93 289.3 894.26 291.67H909.98C910.58 275.65 910.36 248.05 909.61 243.85C904.45 243.85 899.29 243.85 894.06 243.92C893.99 249.11 893.99 254.38 893.99 259.74H877.35V243.99C882.94 243.99 888.54 243.99 894.07 243.92C894.14 233.23 894.14 222.61 894.14 212.35L892.55 210.76H877.02V178.7H861.14C861.14 175.88 861.16 173.24 861.14 170.6C861.12 168.01 861.24 165.4 861.06 162.66H845.09V145.76H829.03V129.7H811.97V113.82H796.09V97.7595H780.03V80.6995H747.14C747.14 77.8895 747.16 75.2395 747.14 72.5995C747.12 69.9995 747.24 67.3995 747.06 64.6495H715.09V48.9295H683.74C683.09 48.2795 682.62 47.8095 681.97 47.1595V32.8095H634.27V17.4595L632.51 15.6995H536.15C536.15 12.8895 536.19 10.2495 536.14 7.60953C536.09 5.00953 536.35 2.38953 536.02 0.0195312H374.11V15.7195H277.76C277.12 16.3595 276.64 16.8395 276 17.4795V32.8295C260.18 32.8295 244.54 32.8295 228.9 32.8295C228.76 32.8295 228.6 32.9095 228.48 32.9995C228.35 33.0895 228.26 33.2395 227.96 33.5695V48.8795H195.07V64.9395H163.01V80.9995H147.48C146.95 81.5295 146.6 81.8795 146.07 82.4095V97.9395H130.01V113.83C127.2 113.83 124.55 113.81 121.91 113.83C119.31 113.85 116.71 113.73 113.96 113.91V129.88H98.0702V145.94H82.5402L81.1302 147.35V162.88H65.0702V194.94H49.0102V243.83C46.2002 243.83 43.5502 243.81 40.9102 243.83C38.3102 243.85 35.7002 243.74 33.3302 243.88V389.86H49.2202V438.92H65.2802V470.98H81.1602C81.1602 481.8 81.1602 492.44 81.1602 503.08C81.1602 503.22 81.2502 503.38 81.3402 503.5C81.4302 503.63 81.5802 503.72 81.9202 504.02H98.2102V519.919H114.27V535.83C117.08 535.83 119.72 535.79 122.36 535.84C124.96 535.89 127.59 535.639 130.15 535.969V568.83H146.15V584.83H162.26V568.94H179.15V584.83H195.26V600.9H211.15V617.83H227.06V602.419L228.53 600.95H244.15V617.83H260.15V633.83H276.15V649.83H292.08V634.039H309.15V649.83H356.66C357.12 650.3 357.59 650.77 358.24 651.43V665.76H406.16C406.16 668.87 406.01 671.83 406.2 674.77C406.37 677.44 405.11 680.4 407.57 682.88H455.05V698.76H504.1V714.65H536.07C536.24 717.39 536.12 719.999 536.15 722.599C536.17 725.239 536.15 727.88 536.15 730.7H585.04V747.76H600.95V763.74H422.34V748.57C422.04 748.25 421.95 748.11 421.82 748.02C421.7 747.93 421.54 747.859 421.39 747.859C400.42 747.859 379.45 747.859 358.06 747.859C357.75 746.779 357.22 745.759 357.2 744.719C357.1 740.569 357.16 736.409 357.16 731.909H325.19V698.859C319.74 698.859 314.45 698.86 309.09 698.93C309.02 704.12 309.02 709.39 309.02 714.75H292.38V699C297.97 699 303.57 699 309.1 698.93C309.17 693.7 309.17 688.53 309.17 683C306.61 682.67 303.99 682.909 301.39 682.859C298.75 682.809 296.11 682.849 293.67 682.849C293.12 682.299 292.77 681.949 292.24 681.419V667.049H276.19V682.849H260.17V698.849C254.67 698.849 249.42 698.849 244.1 698.919C244.03 704.109 244.03 709.38 244.03 714.74H227.39V698.99C232.98 698.99 238.58 698.989 244.11 698.919C244.18 693.519 244.18 688.179 244.18 682.849H228.64C228.24 682.409 227.8 681.92 227.15 681.19V667.01H211.34V682.859H195.19C195.19 688.189 195.19 693.53 195.26 698.93C200.45 699 205.72 699 211.08 699V714.64H195.33C195.33 709.38 195.33 704.119 195.26 698.919C189.85 698.849 184.52 698.849 179.12 698.919C179.05 704.109 179.05 709.38 179.05 714.74H162.41V698.99C168 698.99 173.6 698.989 179.13 698.919C179.2 693.519 179.2 688.179 179.2 682.849H163.7C163.03 682.179 162.68 681.83 162.17 681.32V667.039H146.2C146.2 672.289 146.48 677.619 146.12 682.859H130.2C130.2 688.189 130.2 693.53 130.27 698.93C135.46 699 140.73 699 146.09 699V714.64H130.34C130.34 709.38 130.34 704.119 130.27 698.919C124.86 698.849 119.53 698.849 114.13 698.919C114.06 704.109 114.06 709.38 114.06 714.74H97.4202V698.99C103.01 698.99 108.61 698.989 114.14 698.919C114.21 693.519 114.21 688.179 114.21 682.849H98.7102C98.0402 682.179 97.6902 681.83 97.1802 681.32V667.039H81.2102C81.2102 672.289 81.4902 677.619 81.1302 682.859H65.2102C65.2102 688.189 65.2102 693.53 65.2802 698.93C70.4702 699 75.7402 699 81.1002 699V714.64H65.3502C65.3502 709.38 65.3502 704.119 65.2802 698.919C59.8702 698.849 54.5402 698.849 49.1402 698.919C49.0702 704.109 49.0702 709.38 49.0702 714.74H32.4302V698.99C38.0202 698.99 43.6202 698.989 49.1502 698.919C49.2202 693.519 49.2202 688.179 49.2202 682.849H33.7202C33.0102 682.139 32.6602 681.79 32.1302 681.26V667.08H15.9502V682.84C10.7502 682.84 5.47024 682.57 0.290236 682.9V698.9H15.8802V714.96H0.350236V731.02H16.0002V747.9H0.230236V763.96H15.9402V779.849C10.7402 779.849 5.47024 779.589 0.280236 779.909V795.9H16.1702V844.71H32.2302V829.02H49.0102V844.89H33.2202V877.95H49.2202V893.849C51.8602 893.849 54.4902 893.819 57.1302 893.849C59.8402 893.889 62.5702 893.66 65.2702 894.01V925.87H80.9802V941.219C81.6302 941.869 82.1002 942.34 82.7502 942.99H98.1002C98.1002 948.32 97.8402 953.72 98.1902 959.03H114.16V974.93H130.22V990.81H161.35C162.17 991.49 162.68 991.92 163.31 992.45V1007.93H179.22V1023.99H211.11C211.11 1029.32 210.86 1034.72 211.19 1040.03H260.16V1055.74H307.51C308.16 1056.39 308.63 1056.86 309.27 1057.5V1072.84C317.78 1072.84 326.3 1072.84 334.81 1072.84C349.81 1072.84 364.81 1072.84 379.81 1072.84C387.3 1072.84 394.79 1072.84 402.28 1072.84C405.99 1072.84 409.7 1072.84 413.41 1072.84C415.33 1072.84 417.25 1072.84 419.18 1072.84C420.11 1072.84 421.04 1072.8 421.96 1072.84C422.69 1072.87 422.84 1073.08 423.29 1073.6V1088.72H601.17V1072.73H699.22V1055.68H764.1C764.1 1050.35 763.84 1044.96 764.18 1039.64H796.15V1023.75H829.21V1007.69H845.27V990.81H861.15V974.75H877.21V958.69H894.1C894.1 956.05 894.07 953.41 894.1 950.77C894.14 948.06 893.9 945.33 894.27 942.64H910.14V925.75H926.2V893.69H942.26V862.159C942.79 861.629 943.14 861.28 943.67 860.75H959.2V795.7H974.86V714.65H959.09H959.08ZM861.03 210.82C861.35 216.4 861.11 222.05 861.11 227.64H845.15C845.06 222.15 845.15 216.48 845.1 210.82H861.03ZM812.27 178.9H828.94V194.76C823.4 195.01 817.82 194.81 812.27 194.81V178.89V178.9ZM812.19 243.99H829.05C829.38 249.18 829.11 254.45 829.11 259.64H812.19V243.99ZM780.27 275.94C782.66 275.63 785.28 275.87 787.87 275.83C790.51 275.78 793.14 275.82 795.94 275.82V292.73H780.27V275.94ZM764.02 324.65H747.23C746.91 322.27 747.16 319.65 747.11 317.06C747.06 314.42 747.1 311.78 747.1 308.98H764.02V324.65ZM747.26 291.47V277.16C747.8 276.62 748.15 276.27 748.51 275.91C753.61 275.91 758.71 275.91 763.96 275.91V292.68C761.57 293.01 758.96 292.75 756.38 292.8C753.75 292.85 751.11 292.81 748.62 292.81C748.13 292.32 747.78 291.97 747.27 291.46L747.26 291.47ZM747.28 178.87C752.81 178.59 758.4 178.81 763.94 178.81V194.73H747.28V178.87ZM747.11 243.99H763.92C764.26 249.15 764.17 254.48 763.95 259.81H747.18C746.84 254.57 747.11 249.24 747.11 243.99ZM715.2 308.99H731.05C731.39 314.17 731.11 319.45 731.11 324.64H715.2V308.99ZM699.11 324.65H682.19V308.98H698.98C699.3 311.36 699.05 313.98 699.1 316.57C699.15 319.21 699.11 321.85 699.11 324.65ZM682.11 243.99H699.02V259.64H682.17C681.83 254.46 682.11 249.18 682.11 243.99ZM650.11 340.98H666.03V357.64H650.17C649.89 352.11 650.11 346.52 650.11 340.98ZM585.01 568.69H520.2V633.69H455.3V569.57C455 569.23 454.91 569.09 454.78 568.99C454.66 568.9 454.5 568.81 454.36 568.81C433.05 568.81 411.74 568.81 390.27 568.81V503.93H455.02V439.02H520.08V503.64H585.01V568.7V568.69ZM32.2702 732.12C32.5302 731.89 33.0302 731.46 33.6702 730.9H48.9302V747.719H33.5002C33.1502 747.369 32.8002 747.01 32.2702 746.49V732.109V732.12ZM32.2702 763.88C37.8002 763.6 43.3902 763.82 48.9302 763.82V779.74H32.2702V763.88ZM48.9602 812.82C43.8402 812.82 38.7202 812.82 33.6002 812.82C33.1202 812.34 32.7702 811.989 32.2602 811.479V797.169C32.7802 796.649 33.1302 796.299 33.5202 795.909H47.6802C48.1102 796.339 48.4602 796.69 48.9602 797.19V812.83V812.82ZM80.9302 812.76C75.7402 813.08 70.4702 812.82 65.2702 812.82V795.9H80.9302V812.76ZM81.0202 747.65H65.1602C64.8902 742.11 65.1002 736.53 65.1002 730.99H81.0202V747.65ZM97.1002 732.32C97.7502 731.67 98.1002 731.32 98.5202 730.9H113.92V747.719H98.0402C97.7502 746.849 97.1602 745.85 97.1302 744.83C97.0202 740.69 97.0802 736.54 97.0802 732.32H97.1002ZM97.1102 772.06C97.0602 769.42 97.1002 766.779 97.1002 763.979H114.02V779.65H97.2302C96.9102 777.27 97.1602 774.65 97.1102 772.06ZM114.1 844.65H97.1802V828.99H114.04C114.36 834.18 114.1 839.45 114.1 844.65ZM145.94 812.729H130.26V795.82C135.49 795.82 140.71 795.82 145.94 795.82V812.729ZM146.02 747.64H130.17C129.87 742.12 130.11 736.52 130.11 730.99H146.02V747.64ZM178.94 779.76C173.4 780.02 167.82 779.81 162.27 779.81V763.89H178.94V779.75V779.76ZM179.02 747.63H163.42C162.99 747.2 162.63 746.839 162.2 746.409V732.24C162.59 731.85 162.94 731.5 163.45 730.99H179.02V747.64V747.63ZM211.02 747.65H195.16C194.9 742.11 195.11 736.529 195.11 730.979H211.03V747.65H211.02ZM195.1 682.82H179.1V665.89C173.86 665.55 168.53 665.82 163.27 665.82V649.95C165.94 649.59 168.68 649.86 171.37 649.82C173.94 649.78 176.52 649.82 179.1 649.82V633.82H195.1V649.82H211.1V665.82C205.79 665.82 200.4 665.56 195.1 665.89V682.82ZM130.1 682.82H114.1V665.89C108.86 665.55 103.53 665.82 98.2702 665.82V649.95C100.94 649.59 103.68 649.86 106.37 649.82C108.94 649.78 111.52 649.82 114.1 649.82V633.82H130.1V649.82H146.1V665.75C140.8 666.08 135.41 665.82 130.1 665.82V682.82ZM65.1002 682.82H49.1002V665.89C43.8602 665.55 38.5302 665.82 33.2702 665.82V649.95C35.9402 649.59 38.6802 649.86 41.3702 649.82C43.9402 649.78 46.5202 649.82 49.1002 649.82V633.82H65.1002V649.82H81.1002V665.75C75.8002 666.08 70.4102 665.82 65.1002 665.82V682.82ZM715.1 389.82H731.1V405.82H715.24C714.91 408.38 715.15 411 715.11 413.6C715.06 416.24 715.1 418.88 715.1 421.67H699.2V405.9H683.3V389.85H699.1V373.83H715.1V389.83V389.82ZM845.1 324.82H861.1V340.82H845.24C844.91 343.38 845.15 346 845.11 348.6C845.06 351.24 845.1 353.88 845.1 356.67H829.2V340.9H813.3V324.85H829.1V308.83H845.1V324.83V324.82ZM845.1 389.82H861.1V405.82H845.24C844.91 408.38 845.15 411 845.11 413.6C845.06 416.24 845.1 418.88 845.1 421.67H829.2V405.9H813.3V389.85H829.1V373.83H845.1V389.83V389.82ZM894.1 324.82V308.82H910.1V324.75C915.34 325.09 920.67 324.82 925.93 324.82V340.76C920.74 341.09 915.47 340.82 910.28 340.82V356.64C907.6 357.01 904.88 356.77 902.18 356.81C899.55 356.85 896.91 356.81 894.28 356.81V340.98C891.59 340.62 888.87 340.85 886.17 340.81C883.54 340.77 880.91 340.81 878.27 340.81V324.93C880.95 324.58 883.69 324.85 886.39 324.81C888.96 324.77 891.53 324.81 894.11 324.81L894.1 324.82ZM910.24 292.93H925.88V308.68H910.24V292.93ZM796.24 356.61V340.97H811.99V356.61H796.24ZM876.99 340.97V356.61H861.24V340.97H876.99ZM796.1 373.83H780.1V357.9C785.4 357.57 790.79 357.83 796.1 357.83V373.83ZM828.96 373.69H813.21V358.05H828.96V373.69ZM861.1 373.83H845.1V357.9C850.4 357.57 855.79 357.83 861.1 357.83V373.83ZM893.96 358.04V373.68H878.21V358.04H893.96ZM925.89 357.93V373.68H910.25V357.93H925.89ZM764.1 389.82V373.82H780.1V389.82H764.1ZM796.1 389.82V373.82H812.03C812.36 379.12 812.1 384.51 812.1 389.82H796.1ZM877.1 389.82H861.1V373.82H877.03C877.36 379.12 877.1 384.51 877.1 389.82ZM910.1 389.82H894.1V373.82H910.1V389.82ZM650.1 389.82H666.1V405.82H650.1V389.82ZM764.1 389.82V405.82H748.17C747.84 400.52 748.1 395.13 748.1 389.82H764.1ZM780.1 389.82H796.1V405.82H780.1V389.82ZM894.1 389.82V405.82H878.17C877.84 400.52 878.1 395.13 878.1 389.82H894.1ZM910.1 389.82H926.03C926.36 395.12 926.1 400.51 926.1 405.82H910.1V389.82ZM731.24 421.61V405.97H746.99V421.61H731.24ZM764.1 405.82H780.1V421.75C774.8 422.08 769.41 421.82 764.1 421.82V405.82ZM796.24 421.61V405.97H811.99V421.61H796.24ZM876.99 405.97V421.61H861.24V405.97H876.99ZM894.1 405.83H910.1V421.76C904.8 422.09 899.41 421.83 894.1 421.83V405.83ZM731.1 438.83H715.1V422.9C720.4 422.57 725.79 422.83 731.1 422.83V438.83ZM748.27 438.83V422.91H763.94V438.7C761.56 439.02 758.94 438.77 756.35 438.82C753.71 438.87 751.08 438.83 748.27 438.83ZM780.21 438.69V423.05H795.96V438.69H780.21ZM829.09 430.59C829.14 433.23 829.1 435.86 829.1 438.67H813.18V423H828.97C829.29 425.38 829.04 428 829.09 430.59ZM860.96 438.69H845.21V423.05H860.96V438.69ZM886.33 438.82C883.69 438.87 881.06 438.83 878.26 438.83V422.92H893.93V438.71C891.54 439.02 888.92 438.78 886.32 438.82H886.33ZM48.9602 568.68H33.2102V553.039H48.9602V568.68ZM16.2502 617.68V601.93H31.8902V617.68H16.2502ZM65.1102 617.82H49.1102V601.89C54.4102 601.56 59.8002 601.82 65.1102 601.82V617.82ZM81.2502 617.68V601.93H96.8902V617.68H81.2502ZM130.11 617.82H114.11V601.89C119.41 601.56 124.8 601.82 130.11 601.82V617.82ZM161.9 601.93V617.68H146.26V601.93H161.9ZM195.11 617.82H179.11V601.89C184.41 601.56 189.8 601.82 195.11 601.82V617.82ZM16.1102 633.82H0.170236C-0.159764 628.52 0.100236 623.13 0.100236 617.82H16.1002V633.82H16.1102ZM49.1102 617.82V633.82H33.1802C32.8502 628.52 33.1102 623.13 33.1102 617.82H49.1102ZM65.1102 633.82V617.82H81.1102V633.82H65.1102ZM114.11 617.82V633.82H98.1802C97.8502 628.52 98.1102 623.13 98.1102 617.82H114.11ZM130.11 633.82V617.82H146.11V633.82H130.11ZM179.11 617.82V633.82H163.18C162.85 628.52 163.11 623.13 163.11 617.82H179.11ZM195.11 633.82V617.82H211.11V633.82H195.11ZM16.1102 649.82V633.82H32.0402C32.3702 639.12 32.1102 644.51 32.1102 649.82H16.1102ZM15.9702 568.68H0.210236V553.039H15.9602V568.68H15.9702ZM81.1102 649.82V633.82H97.0402C97.3702 639.12 97.1102 644.51 97.1102 649.82H81.1102ZM926.1 462.57C926.15 465.21 926.11 467.85 926.11 470.65H910.19V454.99H925.98C926.31 457.36 926.05 459.98 926.1 462.57ZM146.11 649.82V633.82H162.04C162.37 639.12 162.11 644.51 162.11 649.82H146.11ZM894.1 462.58C894.15 465.22 894.11 467.85 894.11 470.65H878.19V454.98H893.98C894.3 457.37 894.05 459.98 894.1 462.57V462.58ZM845.32 470.71V454.96H860.96V470.71H845.32ZM0.310236 665.71V649.96H15.9502V665.71H0.310236ZM813.27 470.82V454.9H828.93V470.69C826.56 471.02 823.94 470.76 821.35 470.81C818.71 470.86 816.07 470.82 813.27 470.82ZM113.96 568.68H98.2102V553.039H113.96V568.68ZM32.1002 584.82H16.1002V568.82H32.0302C32.3602 574.12 32.1002 579.51 32.1002 584.82ZM81.1002 552.82V568.82H65.1002V552.89C70.4002 552.56 75.7902 552.82 81.1002 552.82ZM65.1002 568.82V584.82H49.1002V568.82H65.1002ZM81.1002 584.82V568.82H97.0302C97.3602 574.12 97.1002 579.51 97.1002 584.82H81.1002ZM796.1 470.82H780.1V454.82H796.1V470.82ZM130.1 568.82V584.82H114.1V568.82H130.1ZM861.1 438.82H877.03C877.36 444.12 877.1 449.51 877.1 454.82H861.1V438.82ZM812.1 454.82H796.1V438.82H812.03C812.36 444.12 812.1 449.51 812.1 454.82ZM0.310236 600.71V584.96H15.9502V600.71H0.310236ZM33.3102 600.71V584.96H48.9502V600.71H33.3102ZM65.1002 584.82H81.1002V600.75C75.8002 601.08 70.4102 600.82 65.1002 600.82V584.82ZM98.3102 600.71V584.96H113.95V600.71H98.3102ZM130.1 584.82H146.1V600.75C140.8 601.08 135.41 600.82 130.1 600.82V584.82ZM178.96 584.96V600.71H163.32V584.96H178.96ZM925.94 422.82V438.73H910.26V422.82C915.49 422.82 920.71 422.82 925.94 422.82ZM244.1 633.82H260.1V649.82H276.1V665.75C270.8 666.08 265.41 665.82 260.1 665.82V682.82H244.1V665.89C238.86 665.55 233.53 665.82 228.27 665.82V649.95C230.94 649.59 233.68 649.86 236.37 649.82C238.94 649.78 241.52 649.82 244.1 649.82V633.82ZM308.96 665.71H293.32V649.96H308.96V665.71ZM228.1 617.82H244.1V633.82H228.17C227.84 628.52 228.1 623.13 228.1 617.82ZM227.1 649.82H211.1V633.82H227.03C227.36 639.12 227.1 644.51 227.1 649.82Z" fill="#FF5500"></path>
</g>
<defs>
<clipPath id="clip0_520_23">
<rect width="974.85" height="1088.71" fill="white"></rect>
</clipPath>
</defs>
</svg></svg></g></svg></g></svg>