<svg width="201" height="225" viewBox="0 0 201 225" fill="none" xmlns="http://www.w3.org/2000/svg">
<path d="M197.194 147.304V133.993H193.696V127.416H190.401V124.154C189.86 124.154 189.318 124.16 188.777 124.154C188.221 124.145 187.661 124.195 187.109 124.119V117.377H183.849V114.082H180.663C180.554 113.974 180.482 113.902 180.373 113.793V110.607H177.078V107.312H170.501V100.768C167.159 100.768 163.817 100.77 160.473 100.768V97.2799H157.19C157.19 96.7403 157.197 96.2008 157.19 95.6592C157.182 95.095 157.231 94.5246 157.156 93.9625H153.703C153.703 92.8834 153.756 91.7899 153.688 90.7148H150.42V93.983C149.333 94.0507 148.227 93.9974 147.138 93.9974V90.7148H143.824V87.4323C142.836 87.4323 141.916 87.4446 140.995 87.4241C140.786 87.42 140.577 87.3031 140.367 87.2395C140.367 86.6117 140.372 86.0701 140.367 85.5284C140.363 84.9991 140.388 84.4657 140.353 83.9446H137.087V87.4179C136 87.4857 134.894 87.4323 133.804 87.4323V83.9446H130.522V80.6621H127.254V83.9015H123.752C123.752 82.8224 123.752 81.7433 123.735 80.6621H113.713C113.646 79.585 113.699 78.4915 113.699 77.4124H103.88V74.1237H93.8212V70.6299H87.0715V67.3514H107.122V70.6011H120.43V73.8755C121.52 73.9493 122.627 73.8939 123.717 73.8939C123.717 76.1732 123.717 78.4177 123.733 80.6641H127.02V77.4247H130.522V80.6641H133.804V77.396C134.892 77.3283 135.998 77.3816 137.087 77.3816V80.6641H140.37C140.37 79.5747 140.316 78.4689 140.384 77.3816H143.857V74.1299C143.332 74.0601 142.794 74.1114 142.261 74.1011C141.719 74.0909 141.178 74.0991 140.677 74.0991C140.564 73.9862 140.493 73.9144 140.394 73.816V70.8925C140.462 70.8248 140.536 70.7509 140.642 70.6442H143.828V73.8631H147.121V70.636H150.383V74.095H147.142V77.3816H150.424V80.6641H153.707C153.707 79.5747 153.654 78.4689 153.721 77.3816H157.195V74.0991H154.015C153.908 73.9924 153.836 73.9206 153.736 73.8201V70.8925C153.818 70.8104 153.914 70.714 153.984 70.6442H157.227V73.8611H160.479C160.479 72.782 160.426 71.6885 160.493 70.6134H163.762C163.762 69.5199 163.762 68.4244 163.747 67.3165C162.683 67.3022 161.601 67.3022 160.502 67.3022V64.0935H163.733C163.733 65.1726 163.733 66.2518 163.747 67.3186C164.845 67.333 165.928 67.333 167.044 67.333C167.044 66.2436 166.991 65.1378 167.059 64.0504H170.532V60.7987C170.007 60.7289 169.469 60.7802 168.936 60.7699C168.394 60.7597 167.853 60.7679 167.352 60.7679C167.239 60.6551 167.167 60.5833 167.069 60.4848V57.5613C167.137 57.4936 167.21 57.4197 167.317 57.313H170.503V60.532H173.796V57.3048H177.058V60.7638H173.816V64.0504H177.099V67.333H180.382C180.382 66.2436 180.328 65.1378 180.396 64.0504H183.869V60.7658H180.568C180.183 59.7093 180.492 58.624 180.365 57.6044C180.492 57.4772 180.589 57.3807 180.656 57.313H183.869C183.869 57.8875 183.861 58.4291 183.871 58.9707C183.882 59.5021 183.828 60.0396 183.896 60.5258H187.121C187.244 57.2392 187.199 51.5768 187.045 50.7151C185.986 50.7151 184.928 50.7151 183.855 50.7295C183.84 51.7943 183.84 52.8755 183.84 53.9751H180.427V50.7439C181.573 50.7439 182.722 50.7439 183.857 50.7295C183.871 48.5364 183.871 46.3576 183.871 44.2527L183.545 43.9265H180.359V37.3491H177.101C177.101 36.7705 177.105 36.2289 177.101 35.6873C177.097 35.1559 177.122 34.6205 177.085 34.0583H173.808V30.5912H170.513V27.2963H167.013V24.0384H163.756V20.7436H160.461V17.2436H153.713C153.713 16.6671 153.717 16.1234 153.713 15.5818C153.709 15.0484 153.734 14.515 153.697 13.9508H147.138V10.7257H140.706C140.573 10.5923 140.476 10.4959 140.343 10.3626V7.41854H130.557V4.26937L130.196 3.90829H110.427C110.427 3.33179 110.435 2.79018 110.425 2.24856C110.414 1.71515 110.468 1.17763 110.4 0.691406H77.1828V3.91239H57.4158C57.2845 4.04369 57.1861 4.14217 57.0548 4.27347V7.42265C53.8092 7.42265 50.6005 7.42265 47.3918 7.42265C47.3631 7.42265 47.3303 7.43906 47.3056 7.45752C47.279 7.47599 47.2605 7.50676 47.199 7.57446V10.7154H40.4513V14.0103H33.8739V17.3051H30.6878C30.5791 17.4139 30.5073 17.4857 30.3986 17.5944V20.7805H27.1037V24.0405C26.5272 24.0405 25.9835 24.0364 25.4419 24.0405C24.9085 24.0446 24.3751 24.02 23.8109 24.0569V27.3333H20.551V30.6281H17.3648L17.0756 30.9174V34.1035H13.7807V40.6808H10.4859V50.711C9.9094 50.711 9.36573 50.7069 8.82411 50.711C8.2907 50.7151 7.75524 50.6926 7.26901 50.7213V80.6703H10.529V90.7354H13.8238V97.3127H17.0817C17.0817 99.5325 17.0817 101.715 17.0817 103.898C17.0817 103.927 17.1002 103.96 17.1187 103.984C17.1371 104.011 17.1679 104.03 17.2377 104.091H20.5797V107.353H23.8745V110.617C24.451 110.617 24.9926 110.609 25.5342 110.619C26.0677 110.63 26.6072 110.578 27.1324 110.646V117.387H30.415V120.67H33.7201V117.41H37.1852V120.67H40.4903V123.967H43.7502V127.44H47.0143V124.279L47.3159 123.977H50.5205V127.44H53.803V130.723H57.0855V134.005H60.3537V130.766H63.8558V134.005H73.6028C73.6972 134.102 73.7936 134.198 73.927 134.334V137.273H83.7582C83.7582 137.911 83.7274 138.519 83.7664 139.122C83.8012 139.67 83.5427 140.277 84.0474 140.786H93.7883V144.044H103.851V147.304H110.41C110.445 147.866 110.421 148.401 110.427 148.935C110.431 149.476 110.427 150.018 110.427 150.596H120.457V154.096H123.721V157.375H87.0776V154.263C87.0161 154.197 86.9976 154.168 86.9709 154.15C86.9463 154.131 86.9135 154.117 86.8827 154.117C82.5806 154.117 78.2784 154.117 73.89 154.117C73.8264 153.895 73.7177 153.686 73.7136 153.473C73.6931 152.621 73.7054 151.768 73.7054 150.845H67.1465V144.064C66.0284 144.064 64.9431 144.064 63.8434 144.079C63.8291 145.143 63.8291 146.224 63.8291 147.324H60.4153V144.093C61.5621 144.093 62.711 144.093 63.8455 144.079C63.8599 143.006 63.8599 141.945 63.8599 140.81C63.3347 140.743 62.7971 140.792 62.2637 140.782C61.7221 140.771 61.1805 140.78 60.6799 140.78C60.5671 140.667 60.4953 140.595 60.3865 140.486V137.538H57.0937V140.78H53.8071V144.062C52.6787 144.062 51.6017 144.062 50.5102 144.076C50.4959 145.141 50.4959 146.222 50.4959 147.322H47.082V144.091C48.2289 144.091 49.3777 144.091 50.5123 144.076C50.5266 142.969 50.5266 141.873 50.5266 140.78H47.3385C47.2564 140.689 47.1661 140.589 47.0328 140.439V137.53H43.7892V140.782H40.4759C40.4759 141.875 40.4759 142.971 40.4903 144.079C41.5551 144.093 42.6362 144.093 43.7359 144.093V147.302H40.5046C40.5046 146.222 40.5046 145.143 40.4903 144.076C39.3804 144.062 38.2869 144.062 37.179 144.076C37.1647 145.141 37.1647 146.222 37.1647 147.322H33.7508V144.091C34.8977 144.091 36.0466 144.091 37.1811 144.076C37.1954 142.969 37.1954 141.873 37.1954 140.78H34.0155C33.878 140.642 33.8062 140.57 33.7016 140.466V137.536H30.4252C30.4252 138.613 30.4827 139.707 30.4088 140.782H27.1427C27.1427 141.875 27.1427 142.971 27.1571 144.079C28.2218 144.093 29.303 144.093 30.4027 144.093V147.302H27.1714C27.1714 146.222 27.1714 145.143 27.1571 144.076C26.0471 144.062 24.9537 144.062 23.8458 144.076C23.8314 145.141 23.8314 146.222 23.8314 147.322H20.4176V144.091C21.5644 144.091 22.7133 144.091 23.8478 144.076C23.8622 142.969 23.8622 141.873 23.8622 140.78H20.6823C20.5448 140.642 20.473 140.57 20.3684 140.466V137.536H17.092C17.092 138.613 17.1494 139.707 17.0756 140.782H13.8095C13.8095 141.875 13.8095 142.971 13.8238 144.079C14.8886 144.093 15.9698 144.093 17.0694 144.093V147.302H13.8382C13.8382 146.222 13.8382 145.143 13.8238 144.076C12.7139 144.062 11.6204 144.062 10.5126 144.076C10.4982 145.141 10.4982 146.222 10.4982 147.322H7.08437V144.091C8.2312 144.091 9.38009 144.091 10.5146 144.076C10.529 142.969 10.529 141.873 10.529 140.78H7.34902C7.20336 140.634 7.13156 140.562 7.02282 140.453V137.544H3.70336V140.778C2.63654 140.778 1.5533 140.722 0.490584 140.79V144.072H3.689V147.367H0.502893V150.662H3.71362V154.125H0.478274V157.42H3.70131V160.68C2.63449 160.68 1.5533 160.627 0.488532 160.692V163.973H3.7485V173.987H7.04334V170.768H10.4859V174.023H7.24644V180.806H10.529V184.068C11.0706 184.068 11.6102 184.062 12.1518 184.068C12.7078 184.076 13.2678 184.029 13.8218 184.101V190.637H17.0448V193.786C17.1782 193.92 17.2746 194.016 17.4079 194.149H20.5571C20.5571 195.243 20.5038 196.351 20.5756 197.44H23.852V200.702H27.1468V203.96H33.5334C33.7016 204.1 33.8062 204.188 33.9355 204.297V207.472H37.1995V210.767H43.742C43.742 211.861 43.6908 212.969 43.7585 214.058H53.8051V217.281H63.5193C63.6527 217.414 63.7491 217.511 63.8804 217.642V220.789C65.6263 220.789 67.3742 220.789 69.1201 220.789C72.1975 220.789 75.2749 220.789 78.3522 220.789C79.8889 220.789 81.4255 220.789 82.9621 220.789C83.7233 220.789 84.4844 220.789 85.2456 220.789C85.6395 220.789 86.0334 220.789 86.4293 220.789C86.6201 220.789 86.8109 220.781 86.9997 220.789C87.1494 220.795 87.1802 220.838 87.2725 220.945V224.047H123.766V220.767H143.882V217.269H157.192C157.192 216.175 157.139 215.069 157.209 213.978H163.768V210.718H170.55V207.423H173.845V203.96H177.103V200.665H180.398V197.37H183.863C183.863 196.829 183.857 196.287 183.863 195.746C183.871 195.19 183.822 194.63 183.898 194.078H187.154V190.613H190.449V184.035H193.743V177.567C193.852 177.458 193.924 177.386 194.033 177.277H197.219V163.932H200.432V147.304H197.196H197.194ZM177.078 43.9388C177.144 45.0835 177.095 46.2427 177.095 47.3895H173.821C173.802 46.2632 173.821 45.1 173.81 43.9388H177.078ZM167.075 37.3901H170.495V40.6439C169.358 40.6952 168.214 40.6542 167.075 40.6542V37.3881V37.3901ZM167.059 50.7439H170.518C170.585 51.8086 170.53 52.8898 170.53 53.9546H167.059V50.7439ZM160.51 57.2987C161 57.2351 161.538 57.2843 162.069 57.2761C162.611 57.2658 163.15 57.2741 163.725 57.2741V60.7433H160.51V57.2987ZM157.176 67.2919H153.731C153.666 66.8036 153.717 66.2661 153.707 65.7348C153.697 65.1932 153.705 64.6515 153.705 64.0771H157.176V67.2919ZM153.738 60.4848V57.549C153.848 57.4382 153.92 57.3664 153.994 57.2925C155.04 57.2925 156.087 57.2925 157.164 57.2925V60.733C156.673 60.8007 156.138 60.7474 155.609 60.7576C155.069 60.7679 154.527 60.7597 154.017 60.7597C153.916 60.6592 153.844 60.5874 153.74 60.4827L153.738 60.4848ZM153.742 37.384C154.876 37.3265 156.023 37.3716 157.16 37.3716V40.6378H153.742V37.384ZM153.707 50.7439H157.156C157.225 51.8025 157.207 52.896 157.162 53.9895H153.721C153.651 52.9144 153.707 51.8209 153.707 50.7439ZM147.16 64.0791H150.412C150.482 65.1419 150.424 66.2251 150.424 67.2899H147.16V64.0791ZM143.859 67.2919H140.388V64.0771H143.833C143.898 64.5654 143.847 65.1029 143.857 65.6342C143.867 66.1759 143.859 66.7175 143.859 67.2919ZM140.372 50.7439H143.841V53.9546H140.384C140.314 52.8919 140.372 51.8086 140.372 50.7439ZM133.807 70.6422H137.073V74.0601H133.819C133.761 72.9256 133.807 71.7787 133.807 70.6422ZM120.451 117.359H107.154V130.694H93.8396V117.539C93.7781 117.47 93.7596 117.441 93.733 117.42C93.7083 117.402 93.6755 117.383 93.6468 117.383C89.2749 117.383 84.9029 117.383 80.4982 117.383V104.073H93.7822V90.7559H107.13V104.013H120.451V117.361V117.359ZM7.05154 150.888C7.10489 150.841 7.20746 150.752 7.33877 150.637H10.4695V154.088H7.30389C7.23208 154.016 7.16028 153.943 7.05154 153.836V150.886V150.888ZM7.05154 157.404C8.18607 157.346 9.3329 157.391 10.4695 157.391V160.657H7.05154V157.404ZM10.4756 167.444C9.42522 167.444 8.37481 167.444 7.3244 167.444C7.22593 167.346 7.15412 167.274 7.04949 167.169V164.233C7.15617 164.127 7.22798 164.055 7.30799 163.975H10.213C10.3013 164.063 10.3731 164.135 10.4756 164.237V167.446V167.444ZM17.0345 167.432C15.9698 167.497 14.8886 167.444 13.8218 167.444V163.973H17.0345V167.432ZM17.053 154.074H13.7992C13.7438 152.937 13.7869 151.792 13.7869 150.656H17.053V154.074ZM20.352 150.929C20.4853 150.795 20.5571 150.724 20.6433 150.637H23.8027V154.088H20.5448C20.4853 153.91 20.3643 153.705 20.3581 153.495C20.3355 152.646 20.3478 151.795 20.3478 150.929H20.352ZM20.354 159.082C20.3437 158.54 20.352 157.999 20.352 157.424H23.8232V160.639H20.3786C20.313 160.151 20.3643 159.613 20.354 159.082ZM23.8396 173.974H20.3684V170.761H23.8273C23.893 171.826 23.8396 172.907 23.8396 173.974ZM30.3719 167.426H27.155V163.956C28.228 163.956 29.2989 163.956 30.3719 163.956V167.426ZM30.3883 154.072H27.1365C27.075 152.939 27.1242 151.79 27.1242 150.656H30.3883V154.072ZM37.1421 160.661C36.0055 160.715 34.8607 160.672 33.7221 160.672V157.406H37.1421V160.659V160.661ZM37.1585 154.07H33.958C33.8698 153.982 33.796 153.908 33.7078 153.819V150.912C33.7878 150.832 33.8596 150.761 33.9642 150.656H37.1585V154.072V154.07ZM43.7236 154.074H40.4698C40.4164 152.937 40.4595 151.792 40.4595 150.654H43.7256V154.074H43.7236ZM40.4575 140.773H37.1749V137.3C36.0999 137.23 35.0064 137.286 33.9273 137.286V134.03C34.475 133.956 35.0372 134.011 35.5891 134.003C36.1163 133.995 36.6456 134.003 37.1749 134.003V130.721H40.4575V134.003H43.74V137.286C42.6506 137.286 41.5448 137.232 40.4575 137.3V140.773ZM27.1222 140.773H23.8396V137.3C22.7646 137.23 21.6711 137.286 20.592 137.286V134.03C21.1398 133.956 21.7019 134.011 22.2538 134.003C22.781 133.995 23.3103 134.003 23.8396 134.003V130.721H27.1222V134.003H30.4047V137.271C29.3174 137.339 28.2116 137.286 27.1222 137.286V140.773ZM13.7869 140.773H10.5044V137.3C9.42933 137.23 8.33583 137.286 7.2567 137.286V134.03C7.80448 133.956 8.36661 134.011 8.91848 134.003C9.44574 133.995 9.97505 134.003 10.5044 134.003V130.721H13.7869V134.003H17.0694V137.271C15.9821 137.339 14.8763 137.286 13.7869 137.286V140.773ZM147.14 80.6621H150.422V83.9446H147.168C147.101 84.4698 147.15 85.0073 147.142 85.5408C147.132 86.0824 147.14 86.624 147.14 87.1964H143.878V83.961H140.616V80.6682H143.857V77.3816H147.14V80.6641V80.6621ZM173.81 67.3268H177.093V70.6093H173.839C173.771 71.1345 173.821 71.6721 173.812 72.2055C173.802 72.7471 173.81 73.2887 173.81 73.8611H170.548V70.6257H167.286V67.333H170.528V64.0463H173.81V67.3289V67.3268ZM173.81 80.6621H177.093V83.9446H173.839C173.771 84.4698 173.821 85.0073 173.812 85.5408C173.802 86.0824 173.81 86.624 173.81 87.1964H170.548V83.961H167.286V80.6682H170.528V77.3816H173.81V80.6641V80.6621ZM183.863 67.3268V64.0443H187.146V67.3124C188.221 67.3822 189.314 67.3268 190.393 67.3268V70.597C189.328 70.6647 188.247 70.6093 187.183 70.6093V73.8549C186.633 73.9308 186.075 73.8816 185.521 73.8898C184.981 73.898 184.44 73.8898 183.9 73.8898V70.6422C183.348 70.5683 182.79 70.6155 182.236 70.6073C181.697 70.5991 181.157 70.6073 180.615 70.6073V67.3494C181.165 67.2776 181.727 67.333 182.281 67.3248C182.809 67.3165 183.336 67.3248 183.865 67.3248L183.863 67.3268ZM187.174 60.7843H190.383V64.0155H187.174V60.7843ZM163.786 73.8488V70.6401H167.018V73.8488H163.786ZM180.353 70.6401V73.8488H177.122V70.6401H180.353ZM163.758 77.3816H160.475V74.1134C161.562 74.0457 162.668 74.0991 163.758 74.0991V77.3816ZM170.499 77.3529H167.268V74.1442H170.499V77.3529ZM177.093 77.3816H173.81V74.1134C174.898 74.0457 176.003 74.0991 177.093 74.0991V77.3816ZM183.834 74.1422V77.3508H180.603V74.1422H183.834ZM190.385 74.1196V77.3508H187.176V74.1196H190.385ZM157.192 80.6621V77.3796H160.475V80.6621H157.192ZM163.758 80.6621V77.3796H167.026C167.093 78.4669 167.04 79.5727 167.04 80.6621H163.758ZM180.375 80.6621H177.093V77.3796H180.361C180.429 78.4669 180.375 79.5727 180.375 80.6621ZM187.146 80.6621H183.863V77.3796H187.146V80.6621ZM133.804 80.6621H137.087V83.9446H133.804V80.6621ZM157.192 80.6621V83.9446H153.924C153.857 82.8573 153.91 81.7515 153.91 80.6621H157.192ZM160.475 80.6621H163.758V83.9446H160.475V80.6621ZM183.863 80.6621V83.9446H180.595C180.527 82.8573 180.581 81.7515 180.581 80.6621H183.863ZM187.146 80.6621H190.414C190.481 81.7494 190.428 82.8552 190.428 83.9446H187.146V80.6621ZM150.451 87.1841V83.9754H153.682V87.1841H150.451ZM157.192 83.9446H160.475V87.2128C159.388 87.2805 158.282 87.2272 157.192 87.2272V83.9446ZM163.786 87.1841V83.9754H167.018V87.1841H163.786ZM180.353 83.9754V87.1841H177.122V83.9754H180.353ZM183.863 83.9467H187.146V87.2148C186.058 87.2825 184.952 87.2292 183.863 87.2292V83.9467ZM150.422 90.7169H147.14V87.4487C148.227 87.381 149.333 87.4344 150.422 87.4344V90.7169ZM153.945 90.7169V87.4508H157.16V90.6902C156.671 90.7559 156.134 90.7046 155.603 90.7148C155.061 90.7251 154.521 90.7169 153.945 90.7169ZM160.498 90.6882V87.4795H163.729V90.6882H160.498ZM170.526 89.0264C170.536 89.568 170.528 90.1076 170.528 90.6841H167.262V87.4692H170.501C170.567 87.9575 170.515 88.495 170.526 89.0264ZM177.064 90.6882H173.833V87.4795H177.064V90.6882ZM182.269 90.7148C181.727 90.7251 181.188 90.7169 180.613 90.7169V87.4528H183.828V90.6923C183.338 90.7559 182.8 90.7066 182.267 90.7148H182.269ZM10.4756 117.357H7.24439V114.148H10.4756V117.357ZM3.76491 127.409V124.178H6.97358V127.409H3.76491ZM13.7889 127.438H10.5064V124.17C11.5937 124.102 12.6996 124.156 13.7889 124.156V127.438ZM17.1002 127.409V124.178H20.3089V127.409H17.1002ZM27.1242 127.438H23.8417V124.17C24.929 124.102 26.0348 124.156 27.1242 124.156V127.438ZM33.6462 124.178V127.409H30.4375V124.178H33.6462ZM40.4595 127.438H37.177V124.17C38.2643 124.102 39.3701 124.156 40.4595 124.156V127.438ZM3.73619 130.721H0.465965C0.398263 129.633 0.451604 128.528 0.451604 127.438H3.73414V130.721H3.73619ZM10.5064 127.438V130.721H7.23824C7.17054 129.633 7.22388 128.528 7.22388 127.438H10.5064ZM13.7889 130.721V127.438H17.0715V130.721H13.7889ZM23.8417 127.438V130.721H20.5735C20.5058 129.633 20.5592 128.528 20.5592 127.438H23.8417ZM27.1242 130.721V127.438H30.4068V130.721H27.1242ZM37.177 127.438V130.721H33.9088C33.8411 129.633 33.8944 128.528 33.8944 127.438H37.177ZM40.4595 130.721V127.438H43.742V130.721H40.4595ZM3.73619 134.003V130.721H7.00436C7.07206 131.808 7.01872 132.914 7.01872 134.003H3.73619ZM3.70747 117.357H0.474171V114.148H3.70541V117.357H3.70747ZM17.0715 134.003V130.721H20.3396C20.4073 131.808 20.354 132.914 20.354 134.003H17.0715ZM190.428 95.5874C190.438 96.129 190.43 96.6706 190.43 97.245H187.164V94.0322H190.404C190.471 94.5185 190.418 95.056 190.428 95.5874ZM30.4068 134.003V130.721H33.6749C33.7426 131.808 33.6893 132.914 33.6893 134.003H30.4068ZM183.863 95.5894C183.873 96.131 183.865 96.6706 183.865 97.245H180.599V94.0302H183.838C183.904 94.5205 183.853 95.056 183.863 95.5874V95.5894ZM173.855 97.2573V94.0261H177.064V97.2573H173.855ZM0.494687 137.263V134.032H3.70336V137.263H0.494687ZM167.28 97.2799V94.0138H170.493V97.2532C170.007 97.3209 169.469 97.2676 168.938 97.2779C168.396 97.2881 167.855 97.2799 167.28 97.2799ZM23.8109 117.357H20.5797V114.148H23.8109V117.357ZM7.01667 120.668H3.73414V117.385H7.00231C7.07001 118.473 7.01667 119.579 7.01667 120.668ZM17.0694 114.103V117.385H13.7869V114.117C14.8742 114.05 15.98 114.103 17.0694 114.103ZM13.7869 117.385V120.668H10.5044V117.385H13.7869ZM17.0694 120.668V117.385H20.3376C20.4053 118.473 20.352 119.579 20.352 120.668H17.0694ZM163.758 97.2799H160.475V93.9974H163.758V97.2799ZM27.1222 117.385V120.668H23.8396V117.385H27.1222ZM177.093 90.7148H180.361C180.429 91.8022 180.375 92.908 180.375 93.9974H177.093V90.7148ZM167.04 93.9974H163.758V90.7148H167.026C167.093 91.8022 167.04 92.908 167.04 93.9974ZM0.494687 123.928V120.697H3.70336V123.928H0.494687ZM7.26491 123.928V120.697H10.4736V123.928H7.26491ZM13.7869 120.668H17.0694V123.936C15.9821 124.004 14.8763 123.95 13.7869 123.95V120.668ZM20.6002 123.928V120.697H23.8089V123.928H20.6002ZM27.1222 120.668H30.4047V123.936C29.3174 124.004 28.2116 123.95 27.1222 123.95V120.668ZM37.1462 120.697V123.928H33.9375V120.697H37.1462ZM190.395 87.4323V90.6964H187.178V87.4323C188.251 87.4323 189.322 87.4323 190.395 87.4323ZM50.5102 130.721H53.7927V134.003H57.0753V137.271C55.9879 137.339 54.8821 137.286 53.7927 137.286V140.773H50.5102V137.3C49.4352 137.23 48.3417 137.286 47.2626 137.286V134.03C47.8103 133.956 48.3725 134.011 48.9243 134.003C49.4516 133.995 49.9809 134.003 50.5102 134.003V130.721ZM63.8168 137.263H60.6081V134.032H63.8168V137.263ZM47.2277 127.438H50.5102V130.721H47.242C47.1743 129.633 47.2277 128.528 47.2277 127.438ZM47.0225 134.003H43.74V130.721H47.0082C47.0759 131.808 47.0225 132.914 47.0225 134.003Z" fill="#FF5500"/>
</svg>
