<svg width="256" height="256" viewBox="0 0 256 256" fill="none" xmlns="http://www.w3.org/2000/svg">
<rect width="256" height="256" rx="24" fill="#121212"/>
<path d="M131.35 224C119.237 224 108.156 222.711 98.1046 219.877C88.0536 217.299 79.2912 213.434 72.3328 208.021C65.1167 202.867 59.4469 196.424 55.5811 188.435C51.4576 180.703 49.3959 171.683 49.1382 161.632H95.012C96.0429 170.91 99.6509 177.611 105.578 181.734C111.506 185.858 120.011 187.919 131.093 187.919C134.958 187.919 138.566 187.662 142.174 186.889C145.525 186.115 148.617 185.085 151.452 183.538C154.287 181.992 156.349 179.93 158.153 177.353C159.957 175.034 160.73 171.941 160.73 168.591C160.73 164.983 159.957 161.89 158.153 159.57C156.349 157.251 153.514 155.189 150.164 153.385C146.813 151.581 142.432 150.035 137.535 148.746C132.639 147.458 126.969 146.169 120.526 144.623C112.537 142.819 104.548 140.499 96.816 138.18C88.8268 135.86 81.8684 132.51 75.6831 128.387C69.4979 124.263 64.6013 119.109 60.7355 112.666C56.8697 106.223 54.808 98.2336 54.808 88.698C54.808 78.9047 56.612 70.4 60.4778 63.1839C64.3435 56.2255 69.4979 50.298 75.9409 45.6591C82.3838 41.0201 90.1154 37.6698 99.1355 35.3503C108.156 33.0309 117.691 32 128 32C138.051 32 147.329 33.0309 156.091 35.3503C164.596 37.6698 172.327 41.2779 178.77 45.9168C185.213 50.5557 190.368 56.4832 194.233 63.4416C198.099 70.6577 200.161 79.1624 200.676 88.698H156.091C155.318 81.4819 152.225 76.0698 147.071 72.204C141.917 68.3383 134.958 66.5342 126.454 66.5342C118.464 66.5342 112.021 68.0805 107.125 71.1732C102.228 74.5235 99.9086 78.647 99.9086 83.8013C99.9086 87.1517 100.94 89.7289 102.744 91.7906C104.548 94.1101 107.125 95.9141 110.475 97.4604C113.825 99.0067 118.207 100.295 123.619 101.584C128.773 102.872 134.701 104.419 141.659 105.965C150.164 108.027 158.411 110.346 166.4 112.923C174.131 115.501 181.09 118.851 187.017 123.232C192.945 127.613 197.842 133.026 201.45 139.468C205.058 145.911 206.862 154.158 206.862 163.952C206.862 173.487 205.058 181.992 201.192 189.466C197.326 196.94 191.914 203.383 185.213 208.279C178.255 213.434 170.266 217.299 161.246 219.877C151.968 222.711 141.917 224 131.35 224Z" fill="#2AFF00"/>
</svg>
