<svg width="32" height="32" viewBox="0 0 32 32" fill="none" xmlns="http://www.w3.org/2000/svg">
<path d="M32 16C32 15.17 31.33 14.5 30.5 14.5H26.05C25.5 14.5 25.35 13.75 25.86 13.54L30.44 11.64C30.56 11.59 30.67 11.49 30.72 11.37C31.41 9.68 29.98 8.58 28.82 9.07L24.71 10.77C24.2 10.98 23.78 10.34 24.17 9.95L27.31 6.81C27.9 6.22 27.9 5.27 27.31 4.69C26.72 4.1 25.77 4.1 25.19 4.69L22.05 7.83C21.66 8.22 21.03 7.79 21.23 7.29L22.93 3.18C23.41 2.01 22.32 0.59 20.63 1.28C20.51 1.33 20.41 1.43 20.36 1.56L18.46 6.14C18.25 6.65 17.5 6.5 17.5 5.95V1.5C17.5 0.67 16.83 0 16 0C15.17 0 14.5 0.67 14.5 1.5V5.95C14.5 6.5 13.75 6.65 13.54 6.14L11.64 1.56C11.59 1.44 11.49 1.33 11.37 1.28C9.68 0.59 8.58 2.02 9.07 3.18L10.77 7.29C10.98 7.8 10.34 8.22 9.95 7.83L6.81 4.69C6.22 4.1 5.27 4.1 4.69 4.69C4.1 5.28 4.1 6.23 4.69 6.81L7.83 9.95C8.22 10.34 7.79 10.97 7.29 10.77L3.18 9.07C2.01 8.59 0.59 9.68 1.28 11.37C1.33 11.49 1.43 11.59 1.56 11.64L6.14 13.54C6.65 13.75 6.5 14.5 5.95 14.5H1.5C0.67 14.5 0 15.17 0 16C0 16.83 0.67 17.5 1.5 17.5H5.95C6.5 17.5 6.65 18.25 6.14 18.46L1.56 20.36C1.44 20.41 1.33 20.51 1.28 20.63C0.59 22.32 2.01 23.42 3.18 22.93L7.29 21.23C7.8 21.02 8.22 21.66 7.83 22.05L4.69 25.19C4.1 25.78 4.1 26.73 4.69 27.31C5.28 27.9 6.23 27.9 6.81 27.31L9.95 24.17C10.34 23.78 10.97 24.21 10.77 24.71L9.07 28.82C8.59 29.99 9.68 31.41 11.37 30.72C11.49 30.67 11.59 30.57 11.64 30.44L13.54 25.86C13.75 25.35 14.5 25.5 14.5 26.05V30.5C14.5 31.33 15.17 32 16 32C16.83 32 17.5 31.33 17.5 30.5V26.05C17.5 25.5 18.25 25.35 18.46 25.86L20.36 30.44C20.41 30.56 20.51 30.67 20.63 30.72C22.32 31.41 23.42 29.99 22.93 28.82L21.23 24.71C21.02 24.2 21.66 23.78 22.05 24.17L25.19 27.31C25.78 27.9 26.73 27.9 27.31 27.31C27.89 26.72 27.9 25.77 27.31 25.19L24.17 22.05C23.78 21.66 24.21 21.03 24.71 21.23L28.82 22.93C29.99 23.41 31.41 22.32 30.72 20.63C30.67 20.51 30.57 20.41 30.44 20.36L25.86 18.46C25.35 18.25 25.5 17.5 26.05 17.5H30.5C31.33 17.5 32 16.83 32 16Z" fill="#C6C6C6"/>
</svg>
