<svg width="32" height="32" viewBox="0 0 32 32" fill="none" xmlns="http://www.w3.org/2000/svg">
<path d="M18.1198 16.0047L27.5698 6.55469C28.1598 5.96469 28.1598 5.01469 27.5698 4.43469C26.9798 3.84469 26.0298 3.84469 25.4498 4.43469L15.9998 13.8847L6.5498 4.43469C5.9598 3.84469 5.0198 3.84469 4.4298 4.43469C3.8398 5.02469 3.8398 5.96469 4.4298 6.55469L13.8798 16.0047L4.4298 25.4447C3.8398 26.0347 3.8398 26.9847 4.4298 27.5647C5.0198 28.1447 5.9698 28.1547 6.5498 27.5647L15.9998 18.1147L25.4498 27.5647C26.0398 28.1547 26.9898 28.1547 27.5698 27.5647C28.1598 26.9747 28.1598 26.0247 27.5698 25.4447L18.1198 15.9947V16.0047Z" fill="#C6C6C6"/>
</svg>
