<svg width="32" height="32" viewBox="0 0 32 32" fill="none" xmlns="http://www.w3.org/2000/svg">
<path d="M5.50488 4H26.4949C27.3249 4 27.9949 4.67 27.9949 5.5C27.9949 6.33 27.3249 7 26.4949 7H5.50488C4.67488 7 4.00488 6.33 4.00488 5.5C4.00488 4.67 4.67488 4 5.50488 4ZM4.00488 26.5C4.00488 27.33 4.67488 28 5.50488 28H26.4949C27.3249 28 27.9949 27.33 27.9949 26.5C27.9949 25.67 27.3249 25 26.4949 25H5.50488C4.67488 25 4.00488 25.67 4.00488 26.5ZM4.00488 16C4.00488 16.83 4.67488 17.5 5.50488 17.5H26.4949C27.3249 17.5 27.9949 16.83 27.9949 16C27.9949 15.17 27.3249 14.5 26.4949 14.5H5.50488C4.67488 14.5 4.00488 15.17 4.00488 16Z" fill="#C6C6C6"/>
</svg>
