<svg width="32" height="32" viewBox="0 0 32 32" fill="none" xmlns="http://www.w3.org/2000/svg">
<path d="M21.66 22.91C23.08 23.08 23.44 25.03 22.17 25.71C20.63 26.53 18.87 27 17 27C10.93 27 6 22.08 6 16C6 12.56 7.58 9.5 10.04 7.48C11.16 6.56 12.77 7.69 12.39 9.09C11.39 12.77 12.33 16.88 15.22 19.77C17.03 21.57 19.31 22.62 21.66 22.9V22.91ZM8.25 1.75H7.75C7.47 1.75 7.25 1.53 7.25 1.25V0.75C7.25 0.34 6.91 0 6.5 0C6.09 0 5.75 0.34 5.75 0.75V1.25C5.75 1.53 5.53 1.75 5.25 1.75H4.75C4.34 1.75 4 2.09 4 2.5C4 2.91 4.34 3.25 4.75 3.25H5.25C5.53 3.25 5.75 3.47 5.75 3.75V4.25C5.75 4.66 6.09 5 6.5 5C6.91 5 7.25 4.66 7.25 4.25V3.75C7.25 3.47 7.47 3.25 7.75 3.25H8.25C8.66 3.25 9 2.91 9 2.5C9 2.09 8.66 1.75 8.25 1.75ZM5.25 28.75H4.75C4.47 28.75 4.25 28.53 4.25 28.25V27.75C4.25 27.34 3.91 27 3.5 27C3.09 27 2.75 27.34 2.75 27.75V28.25C2.75 28.53 2.53 28.75 2.25 28.75H1.75C1.34 28.75 1 29.09 1 29.5C1 29.91 1.34 30.25 1.75 30.25H2.25C2.53 30.25 2.75 30.47 2.75 30.75V31.25C2.75 31.66 3.09 32 3.5 32C3.91 32 4.25 31.66 4.25 31.25V30.75C4.25 30.47 4.47 30.25 4.75 30.25H5.25C5.66 30.25 6 29.91 6 29.5C6 29.09 5.66 28.75 5.25 28.75ZM29.75 26.75H29.25C28.97 26.75 28.75 26.53 28.75 26.25V25.75C28.75 25.34 28.41 25 28 25C27.59 25 27.25 25.34 27.25 25.75V26.25C27.25 26.53 27.03 26.75 26.75 26.75H26.25C25.84 26.75 25.5 27.09 25.5 27.5C25.5 27.91 25.84 28.25 26.25 28.25H26.75C27.03 28.25 27.25 28.47 27.25 28.75V29.25C27.25 29.66 27.59 30 28 30C28.41 30 28.75 29.66 28.75 29.25V28.75C28.75 28.47 28.97 28.25 29.25 28.25H29.75C30.16 28.25 30.5 27.91 30.5 27.5C30.5 27.09 30.16 26.75 29.75 26.75ZM29 4H28C27.45 4 27 3.55 27 3V2C27 1.45 26.55 1 26 1C25.45 1 25 1.45 25 2V3C25 3.55 24.55 4 24 4H23C22.45 4 22 4.45 22 5C22 5.55 22.45 6 23 6H24C24.55 6 25 6.45 25 7V8C25 8.55 25.45 9 26 9C26.55 9 27 8.55 27 8V7C27 6.45 27.45 6 28 6H29C29.55 6 30 5.55 30 5C30 4.45 29.55 4 29 4Z" fill="#C6C6C6"/>
</svg>
